#!OML:ASF E:\emotionWalksFemale\Project 1\Capture day 1\Session 1\Female1.ASF
:FULLY-SPECIFIED
:DEGREES
16
root 8.60907 15.482 22.4391 179.593 -1.19661 -178.897
lowerback 9.57837 1.40874 1.36285
upperback -3.61402 2.04681 0.00549949
thorax -9.1875 0.900459 -1.11395
lowerneck -9.893 -3.50737 -7.15272
upperneck 11.3918 -4.7456 7.13388
head 5.39222 -2.21319 3.03446
rclavicle -1.60643e-014 -2.33572e-015
rhumerus -51.9568 15.2172 -99.1448
rradius 34.6502
rwrist 18.2106
rhand -8.82768 -56.5563
rfingers 7.12502
rthumb 17.1123 -85.8227
lclavicle -1.60643e-014 -2.33572e-015
lhumerus -46.1804 -1.70003 88.411
lradius 30.1093
lwrist -12.6308
lhand -4.76395 -32.7084
lfingers 7.12502
lthumb 21.0202 -3.82756
rfemur 0.083393 14.0499 26.3395
rtibia 16.702
rfoot -16.447 -25.7025
rtoes 2.6505
lfemur -6.0489 -15.4866 -23.0177
ltibia 25.0212
lfoot -22.5976 13.7881
ltoes -25.3027
17
root 8.60877 15.4824 22.4409 179.609 -1.20841 -178.909
lowerback 9.53158 1.41588 1.35238
upperback -3.56591 2.05519 0.0107113
thorax -9.10782 0.907085 -1.10167
lowerneck -9.88454 -3.54575 -7.19163
upperneck 11.2633 -4.78291 7.1517
head 5.35517 -2.23038 3.04345
rclavicle -3.26908e-014 -3.32964e-015
rhumerus -51.8899 15.1763 -99.0635
rradius 34.6962
rwrist 18.224
rhand -8.87799 -56.5909
rfingers 7.12502
rthumb 17.0639 -85.8615
lclavicle -3.26908e-014 -3.32964e-015
lhumerus -46.0381 -1.69182 88.4526
lradius 30.0374
lwrist -12.5966
lhand -4.80685 -32.7819
lfingers 7.12502
lthumb 20.979 -3.89649
rfemur 0.0442108 13.9905 26.3123
rtibia 16.7196
rfoot -16.5091 -25.7037
rtoes 2.58133
lfemur -6.08357 -15.4712 -23.016
ltibia 25.0343
lfoot -22.6362 13.6934
ltoes -24.8918
18
root 8.60872 15.4842 22.4415 179.643 -1.21579 -178.933
lowerback 9.52437 1.43421 1.31009
upperback -3.56899 2.07457 0.0177439
thorax -9.10817 0.919114 -1.07357
lowerneck -9.82803 -3.5906 -7.25584
upperneck 11.1907 -4.83231 7.15631
head 5.3285 -2.2573 3.05203
rclavicle -1.08213e-014 -1.98785e-016
rhumerus -51.9003 15.195 -99.0338
rradius 34.6964
rwrist 18.2274
rhand -9.04419 -56.4892
rfingers 7.12502
rthumb 16.9039 -85.7736
lclavicle -1.08213e-014 -1.98785e-016
lhumerus -46.0223 -1.82197 88.5401
lradius 30.0851
lwrist -12.4305
lhand -4.69549 -32.7236
lfingers 7.12502
lthumb 21.086 -3.85008
rfemur -0.0234495 13.9879 26.2726
rtibia 16.7629
rfoot -16.5309 -25.7028
rtoes 2.57865
lfemur -6.12972 -15.4127 -23.0346
ltibia 25.0405
lfoot -22.6392 13.6433
ltoes -25.4738
19
root 8.60796 15.4835 22.4426 179.668 -1.19831 -178.978
lowerback 9.5799 1.43823 1.24575
upperback -3.59404 2.07305 0.0276691
thorax -9.17075 0.921359 -1.0288
lowerneck -9.77209 -3.58581 -7.26232
upperneck 11.1194 -4.81142 7.08278
head 5.2938 -2.25204 3.03234
rclavicle 3.84213e-015 4.22417e-015
rhumerus -51.9828 15.3182 -99.0724
rradius 34.7117
rwrist 18.1921
rhand -9.11998 -56.4497
rfingers 7.12502
rthumb 16.8309 -85.7403
lclavicle 3.84213e-015 4.22417e-015
lhumerus -46.0788 -1.79364 88.5609
lradius 30.1587
lwrist -12.3916
lhand -4.63337 -32.6499
lfingers 7.12502
lthumb 21.1456 -3.78303
rfemur -0.0765554 13.9621 26.2042
rtibia 16.7937
rfoot -16.4607 -25.6333
rtoes 2.22211
lfemur -6.1786 -15.3634 -23.0815
ltibia 25.0571
lfoot -22.6854 13.6191
ltoes -26.2575
20
root 8.6072 15.4829 22.444 179.683 -1.14569 -178.966
lowerback 9.6241 1.43797 1.24014
upperback -3.59886 2.07403 0.0428352
thorax -9.20273 0.92222 -1.01116
lowerneck -9.77124 -3.56353 -7.23046
upperneck 11.0749 -4.77347 7.02656
head 5.27494 -2.23485 3.01255
rclavicle 3.03147e-015 3.13086e-015
rhumerus -52.0247 15.4492 -99.1457
rradius 34.7387
rwrist 18.0515
rhand -9.23316 -56.5334
rfingers 7.12502
rthumb 16.722 -85.8332
lclavicle 3.03147e-015 3.13086e-015
lhumerus -46.1115 -1.58053 88.4796
lradius 30.1179
lwrist -12.4578
lhand -4.58362 -32.7103
lfingers 7.12502
lthumb 21.1934 -3.84876
rfemur -0.123627 13.9045 26.1901
rtibia 16.825
rfoot -16.4846 -25.5039
rtoes 2.1028
lfemur -6.20757 -15.3509 -23.0621
ltibia 25.0777
lfoot -22.7858 13.6024
ltoes -26.0175
21
root 8.60677 15.4832 22.4465 179.744 -1.0686 -178.932
lowerback 9.61244 1.44431 1.26159
upperback -3.61207 2.08563 0.0519633
thorax -9.20965 0.926512 -1.01533
lowerneck -9.77796 -3.56003 -7.2255
upperneck 11.0596 -4.76874 7.03393
head 5.27106 -2.23159 3.01437
rclavicle 1.46697e-014 4.47266e-016
rhumerus -52.026 15.533 -99.2067
rradius 34.7344
rwrist 17.8942
rhand -9.35049 -56.5134
rfingers 7.12502
rthumb 16.609 -85.8227
lclavicle 1.46697e-014 4.47266e-016
lhumerus -46.132 -1.52304 88.4414
lradius 30.0665
lwrist -12.3949
lhand -4.61339 -32.8686
lfingers 7.12502
lthumb 21.1648 -4.00392
rfemur -0.236343 13.8596 26.1856
rtibia 16.861
rfoot -16.5025 -25.3779
rtoes 2.38894
lfemur -6.29179 -15.3328 -23.0045
ltibia 25.1003
lfoot -22.8262 13.6365
ltoes -25.7469
22
root 8.60761 15.4808 22.4474 179.681 -1.20728 -178.941
lowerback 9.70966 1.38703 1.25986
upperback -3.59982 2.00969 0.0370995
thorax -9.25466 0.889187 -1.01989
lowerneck -9.69484 -3.55937 -7.19221
upperneck 10.9402 -4.77175 7.04429
head 5.21973 -2.23231 3.013
rclavicle 3.63093e-015 7.95139e-016
rhumerus -52.0597 15.5424 -99.2427
rradius 34.7282
rwrist 17.9181
rhand -9.42412 -56.3291
rfingers 7.12502
rthumb 16.5381 -85.6443
lclavicle 3.63093e-015 7.95139e-016
lhumerus -46.148 -1.59445 88.4296
lradius 30.0191
lwrist -12.3751
lhand -4.82886 -33.1011
lfingers 7.12502
lthumb 20.9578 -4.21334
rfemur -0.142751 13.8082 26.2151
rtibia 16.8546
rfoot -16.4672 -25.49
rtoes 2.52233
lfemur -6.26878 -15.3526 -23.0156
ltibia 25.1413
lfoot -22.8413 13.546
ltoes -25.9
23
root 8.60751 15.4808 22.4481 179.663 -1.23299 -178.925
lowerback 9.78109 1.37341 1.29964
upperback -3.58826 1.99759 0.0258389
thorax -9.28255 0.880549 -1.05412
lowerneck -9.68496 -3.55746 -7.16573
upperneck 10.8407 -4.76576 7.0466
head 5.18632 -2.2274 3.01004
rclavicle -2.59476e-014 -6.4605e-015
rhumerus -52.0862 15.5274 -99.2506
rradius 34.7782
rwrist 18.0602
rhand -9.44271 -56.2064
rfingers 7.12502
rthumb 16.5203 -85.5231
lclavicle -2.59476e-014 -6.4605e-015
lhumerus -46.0503 -1.46378 88.3019
lradius 29.8766
lwrist -12.5445
lhand -4.88958 -33.5159
lfingers 7.12502
lthumb 20.8995 -4.62169
rfemur -0.109769 13.8049 26.2403
rtibia 16.8296
rfoot -16.4603 -25.5165
rtoes 2.23312
lfemur -6.28372 -15.2714 -22.9887
ltibia 25.1969
lfoot -22.8912 13.3812
ltoes -25.4681
24
root 8.60751 15.4808 22.4492 179.686 -1.22333 -178.886
lowerback 9.78893 1.36553 1.35452
upperback -3.58228 1.9952 0.0323139
thorax -9.27911 0.876461 -1.07777
lowerneck -9.64946 -3.55037 -7.20625
upperneck 10.755 -4.75174 7.09052
head 5.15486 -2.21957 3.03214
rclavicle 2.50003e-014 2.98177e-016
rhumerus -52.1058 15.5638 -99.273
rradius 34.8127
rwrist 18.1964
rhand -9.41121 -56.1896
rfingers 7.12502
rthumb 16.5506 -85.5037
lclavicle 2.50003e-014 2.98177e-016
lhumerus -45.9789 -1.29038 88.1896
lradius 29.8093
lwrist -12.6482
lhand -4.83032 -33.6521
lfingers 7.12502
lthumb 20.9564 -4.76417
rfemur -0.138185 13.8259 26.2736
rtibia 16.8302
rfoot -16.5756 -25.511
rtoes 2.06365
lfemur -6.35127 -15.1148 -22.9251
ltibia 25.2565
lfoot -22.847 13.3002
ltoes -25.9268
